<?xml version="1.0" encoding="utf-8"?>
<!-- Generator: Adobe Illustrator 24.1.2, SVG Export Plug-In . SVG Version: 6.00 Build 0)  -->
<svg version="1.1" id="Layer_1" xmlns="http://www.w3.org/2000/svg" xmlns:xlink="http://www.w3.org/1999/xlink" x="0px" y="0px"
	 viewBox="0 0 1264.6 224.1" style="enable-background:new 0 0 1264.6 224.1;" xml:space="preserve">
<style type="text/css">
	.st0{fill:#DBD6D1;stroke:#132361;stroke-width:3.1595;stroke-miterlimit:6.3189;}
	.st1{fill:#00092E;}
	.st2{fill:#DBD6D1;}
</style>
<g>
	<path class="st0" d="M220.1,197.7c-21.4,0-38.7-17.3-38.7-38.7c0-2.1,0.2-4.3,0.5-6.4l21-125.9h62.3c13.1,0,23.4,1.3,31.6,3.8
		c9.1,2.8,16.9,8.7,23.3,17.4c6.4,8.8,9.6,19.4,9.6,31.8c0,9.2-2,18.2-5.6,26.6c-3.9,9.2-9.6,16.5-16.9,21.7
		c-7,5.1-13.4,8.3-19.7,9.9c-5.9,1.5-14.2,2.2-25.3,2.2h-25.1l-9.6,57.5L220.1,197.7z M260.6,95.7c4.5,0,10.5-0.6,13.6-3.8
		c2.6-2.6,3.8-5.7,3.8-9.7c0-2.7-1-5.1-3-7.6c0,0-2.5-2.9-15.5-2.9h-10.8l-4,24H260.6z"/>
	<path class="st0" d="M353.7,200.5c-12.3,0-22.6-3.8-30.7-11.2c-8.3-7.6-12.4-17.3-12.4-28.7c0-15.3,7.1-28.1,20.6-37.2
		c4.6-3.1,10.3-5.7,17.3-7.8c-5.9-3.9-9.9-10.1-11.1-17.1c-2-11.6,3.5-22.4,14-27.5c9.7-4.7,21.4-7.1,34.9-7.1
		c16.6,0,29.6,3.7,38.8,11c9.6,7.7,14.7,18.4,14.7,30.8c0,2.6-0.3,8.2-3.3,26.1l-4.9,29.4c-1.5,8.9-2.2,15.7-2.2,20.2
		c0,2.1,0.2,4.2,0.5,6.3l1.4,10.1H381l-0.2-4.3C373.2,198.1,364.1,200.5,353.7,200.5z M383.4,143.3c-13.6,1.9-20.5,6.4-20.5,13.5
		c0,2.3,0.7,3.3,1.3,4c0.3,0.4,0.9,1,2.9,1c2.3,0,5.9-0.6,10.3-6C379.8,152.8,381.8,148.6,383.4,143.3L383.4,143.3z M383.9,102.5
		c-6.6,0-10.7,2.5-13.4,8.4c5.9-0.8,12.4-1.5,19.4-1.9c0.1-0.6,0.1-1.2,0.1-1.7c0-2.4-0.8-3-1.1-3.4
		C387.9,102.9,386.2,102.5,383.9,102.5L383.9,102.5z"/>
	<path class="st0" d="M489.2,200.3c-14.5,0-27.5-3.2-38.5-9.6l-0.4-0.2c-11.5-6.8-15.4-21.7-8.5-33.2c3.7-6.2,10-10.5,17.2-11.6
		c-2.9-1.7-5.6-3.9-7.8-6.4c-6.8-7.7-10.2-17-10.2-27.5c0-13.8,5-25.5,14.7-34.7c9.6-9.1,22.9-13.7,39.6-13.7
		c11.5,0,21.5,1.9,29.7,5.6c13.1,6,18.9,21.6,12.9,34.7c-2.2,4.8-5.8,8.8-10.3,11.5c2.6,1.3,5,2.9,7.2,4.7
		c8.8,7,13.3,17.3,13.3,30.8c0,13.9-5.4,25.8-16.2,35.4C521.2,195.5,506.9,200.3,489.2,200.3z M474.7,152.5
		c0.4,2.8,1.2,8.5,15.9,8.5c5.6,0,7.8-1.2,8.5-1.7c0.4-0.3,0.8-0.7,1.1-1.2c-1.2-0.5-4.3-1.5-11.6-2.8c-4.7-0.8-9.4-1.8-14-3.1
		L474.7,152.5z M489.2,104.6c1.4,0.5,4.6,1.4,11.2,2.5c2.6,0.4,5,0.9,7.4,1.4c-1.3-3.2-4.4-5.9-12.9-5.9c-3.3,0-4.5,1-5,1.4
		C489.6,104.2,489.4,104.4,489.2,104.6z"/>
	<path class="st0" d="M596.2,200.3c-14.5,0-27.5-3.2-38.5-9.6l-0.4-0.2c-11.5-6.8-15.4-21.7-8.5-33.2c3.7-6.2,10-10.5,17.2-11.6
		c-2.9-1.7-5.6-3.9-7.8-6.4c-6.8-7.7-10.2-17-10.2-27.5c0-13.8,5-25.5,14.7-34.7c9.6-9.1,22.9-13.7,39.6-13.7
		c11.5,0,21.5,1.9,29.7,5.6c13.1,6,18.9,21.6,12.9,34.7c-2.2,4.8-5.8,8.8-10.3,11.5c2.6,1.3,5,2.9,7.2,4.7
		c8.8,7,13.3,17.3,13.3,30.8c0,13.9-5.4,25.8-16.2,35.4C628.3,195.5,613.9,200.3,596.2,200.3z M581.7,152.5
		c0.4,2.8,1.2,8.5,15.9,8.5c5.6,0,7.8-1.2,8.5-1.7c0.5-0.3,0.8-0.7,1.1-1.2c-1.2-0.5-4.3-1.5-11.6-2.8c-4.7-0.8-9.4-1.8-14-3.1
		L581.7,152.5z M596.2,104.6c1.4,0.5,4.6,1.4,11.2,2.5c2.6,0.4,5.1,0.9,7.4,1.4c-1.3-3.2-4.4-5.9-12.9-5.9c-3.3,0-4.5,1-5,1.4
		C596.6,104.2,596.4,104.4,596.2,104.6L596.2,104.6z"/>
	<path class="st0" d="M723.4,199.7c-18.4,0-34.3-6.7-47.1-19.8c-12.8-13.1-19.2-31.4-19.2-54.4c0-28.3,7.8-52.4,23.1-71.8
		c15.8-20,36.5-30.1,61.5-30.1c18.3,0,33.5,5.2,45.3,15.4l0.4,0.3c13.6,12.2,14.8,33.1,2.7,46.7c-5.1,5.7-11.9,9.4-19.4,10.6l-7,1.1
		h44.7l-16.9,101h-29.1l-2.2-11.3C749.8,195.7,737.5,199.7,723.4,199.7z M741.6,69.6c-6.4,0-11.4,2.3-15.6,7.4
		c-5,5.9-8.7,14.1-11.1,24.5c-2.6,11.1-3.9,20.4-3.9,27.6c0,7.5,1.6,13.4,5.1,18.2c1,1.4,4,5.7,14.5,5.7h0.2c5.6,0,12.2-1.5,17.3-11
		c-16-4.6-26-20.4-23.3-36.8l1.2-7.4h34l-1.2-8.3C756.3,71.9,748.7,69.6,741.6,69.6L741.6,69.6z"/>
	<path class="st0" d="M863.6,200.5c-17.5,0-31.9-5.8-43-17.3s-16.5-26.2-16.5-44.2c0-19.4,6.2-36.9,18.5-52
		c12.8-15.7,29.8-23.7,50.7-23.7c17.9,0,32.1,6,42.3,17.9c9.9,11.5,14.9,25.8,14.9,42.5c0,12.4-10.1,22.5-22.5,22.5h-5.6
		c4.8,3.7,8.3,8.9,9.7,14.8c2.6,10.2-1.2,20.9-9.6,27.2l-0.3,0.2C891.6,196.5,878.6,200.5,863.6,200.5z M855.1,146.3
		c0.1,4.7,1.1,8.1,3,10c2,2,4.7,3.1,7.5,3c4.6,0,10.4-1.4,14.5-12.4l0.2-0.5H855.1z M882.1,109.7c-0.4-3.6-1.7-4.8-2.2-5.3
		c-1.7-1.6-3.9-2.5-6.2-2.4c-2.6,0-7.9,0-12,7.7H882.1z"/>
	<path class="st0" d="M1018.4,197.7l-34.2-85.1c-0.9,5.7-1.9,12.1-3.1,19.1l-5.1,30.2c-3.4,20.7-21.3,35.9-42.3,35.8h-10.5l28.6-171
		h52.4l27,68.3c0.6-3.7,1.2-7.8,1.9-12.3l9.3-56h7.5c18.3,0,33.2,14.8,33.3,33.2c0,1.9-0.2,3.7-0.5,5.6l-22.2,132.3H1018.4z"/>
	<path class="st1" d="M229.7,131.4l-9.6,57.5l0,0c-16.5,0-29.9-13.4-29.9-29.9c0-1.6,0.1-3.3,0.4-4.9l19.8-118.5h54.8
		c12.1,0,21.7,1.1,29,3.4s13.5,7,18.8,14.2c5.3,7.2,7.9,16.1,7.9,26.5c0,8-1.7,15.9-4.9,23.2c-3.3,7.7-7.9,13.7-13.9,18
		c-6,4.3-11.6,7.2-16.7,8.5c-5.1,1.3-12.8,2-23.1,2L229.7,131.4z M241.1,62.9l-7,41.7h26.4c9.1,0,15.7-2.2,19.9-6.5
		s6.3-9.6,6.3-15.9c0-4.8-1.7-9.2-5.1-13.3c-3.4-4.1-10.8-6.1-22.3-6.1L241.1,62.9z"/>
	<path class="st1" d="M389.4,188.9c-0.1-3.4-0.2-5.7-0.2-7.1c0.1-2.4,0.3-4.9,0.7-7.3c0.3-2,0.5-3.8,0.6-5.3
		c-7.1,15-19.4,22.5-36.7,22.5c-10,0-18.2-2.9-24.6-8.8c-6.4-5.9-9.6-13.3-9.6-22.2c0-12.4,5.6-22.4,16.7-29.9
		c11.2-7.5,31.4-11.9,60.7-13.3c1.3-3.3,2-6.7,2-10.2c0-4.2-1.3-7.5-4-9.9c-2.7-2.4-6.3-3.6-10.9-3.7c-11.5,0-19.1,5.8-22.9,17.3
		l0,0c-16.8-1.9-20.9-24.6-5.7-32.1c8.5-4.2,18.8-6.2,31.1-6.2c14.6,0,25.7,3,33.3,9.1c7.6,6.1,11.4,14,11.4,23.9
		c0,3.6-1.1,11.8-3.2,24.7l-4.9,29.3c-1.5,9.4-2.3,16.6-2.3,21.6c0,2.5,0.2,5,0.6,7.5H389.4z M394.5,133.5c-27,1-40.4,8.7-40.4,23.3
		c-0.1,3.6,1.1,7.2,3.5,9.9c2.4,2.7,5.5,4,9.5,4c6.4,0,12.2-3.1,17.2-9.3C389.2,155.2,392.7,145.9,394.5,133.5z"/>
	<path class="st1" d="M517.2,109.7L517.2,109.7c-2.1-10.6-9.6-16-22.5-15.9c-4.3,0-7.8,1.1-10.6,3.4c-2.8,2.3-4.2,4.8-4.2,7.7
		c0,3.2,1.2,5.6,3.6,7c2.4,1.4,7.5,2.8,15.2,4c13.6,2.1,23.6,5.8,30.2,11c6.6,5.2,9.9,13.2,9.9,23.9c0,11.3-4.4,20.9-13.3,28.9
		c-8.8,7.9-21.1,11.9-36.6,11.9c-13,0-24.4-2.8-34.1-8.4l-0.3-0.2c-12.7-7.5-8.5-26.9,6.1-28.6l5.1-0.6c1.5,10.8,9.7,16.2,24.7,16.2
		c6.1,0,10.8-1.2,13.9-3.5c3.1-2.4,4.7-5.2,4.7-8.4c0-3.2-1.2-5.6-3.6-7.1c-2.4-1.5-7.5-2.9-15.4-4.3c-16.3-2.8-27.2-7.2-32.5-13.2
		c-5.4-6.1-8-13.3-8-21.7c0-11.3,4-20.7,12-28.3c8-7.5,19.1-11.3,33.5-11.3c10.3,0,18.9,1.6,26,4.8
		C536.4,84,533.7,106.5,517.2,109.7z"/>
	<path class="st1" d="M624.3,109.7L624.3,109.7c-2.1-10.6-9.6-16-22.5-15.9c-4.3,0-7.8,1.1-10.6,3.4c-2.8,2.3-4.2,4.8-4.2,7.7
		c0,3.2,1.2,5.6,3.6,7c2.4,1.4,7.5,2.8,15.2,4c13.6,2.1,23.6,5.8,30.2,11c6.6,5.2,9.9,13.2,9.9,23.9c0,11.3-4.4,20.9-13.3,28.9
		c-8.8,7.9-21.1,11.9-36.6,11.9c-13,0-24.4-2.8-34.1-8.4l-0.3-0.2c-12.7-7.5-8.5-26.9,6.1-28.6l5.1-0.6c1.5,10.8,9.7,16.2,24.7,16.2
		c6.1,0,10.8-1.2,13.9-3.5s4.7-5.2,4.7-8.4c0-3.2-1.2-5.6-3.6-7.1c-2.4-1.5-7.5-2.9-15.4-4.3c-16.3-2.8-27.2-7.2-32.5-13.2
		c-5.4-6.1-8-13.3-8-21.7c0-11.3,4-20.7,12-28.3c8-7.5,19.1-11.3,33.5-11.3c10.3,0,18.9,1.6,26,4.8
		C643.4,84,640.8,106.5,624.3,109.7z"/>
	<path class="st1" d="M798.1,106.7L784.2,190h-14.4l-4.1-20.7c-10.8,14.4-24.9,21.6-42.2,21.6c-16,0-29.6-5.7-40.7-17.1
		c-11.1-11.4-16.7-27.5-16.7-48.2c0-26.4,7.1-48.5,21.2-66.3c14.2-17.9,32.3-26.8,54.6-26.8c16.2,0,29.3,4.4,39.5,13.3l0.3,0.3
		c15.3,13.5,7.8,38.7-12.3,42l-1.8,0.3c-2.7-18.3-11.3-27.5-25.9-27.5c-9,0-16.4,3.5-22.4,10.5c-5.9,7-10.2,16.4-13,28.2
		c-2.7,11.8-4.1,21.7-4.1,29.5c0,9.3,2.2,17.1,6.7,23.4s11.7,9.5,21.7,9.4c14.8,0.1,24.8-9.1,29.9-27.4h-3.4
		c-13.2,0-23.8-10.7-23.8-23.8c0-1.3,0.1-2.6,0.3-3.9L798.1,106.7L798.1,106.7z"/>
	<path class="st1" d="M908.1,137.4h-61.2c-0.4,2.8-0.6,5.6-0.7,8.4c0,7.4,1.9,13,5.6,16.7c3.6,3.7,8.6,5.7,13.7,5.6
		c10.7,0,18.3-6.1,22.8-18.2l1.2,0.2c15.1,2.5,19.9,21.9,7.8,31.1l-0.3,0.2c-9.1,6.8-20.3,10.3-33.4,10.3
		c-15.1,0-27.3-4.9-36.6-14.6s-14-22.4-14-38c0-17.4,5.5-32.8,16.6-46.5c11-13.6,25.7-20.4,43.9-20.4c15.3,0,27.2,4.9,35.7,14.8
		s12.7,22.1,12.8,36.8l0,0C921.8,131.3,915.7,137.4,908.1,137.4z M849.2,118.6h34.9c3.8,0,6.8-3,6.8-6.8v-0.1c0-6-1.7-10.5-5.1-13.7
		c-3.3-3.2-7.7-4.9-12.3-4.8C861,93.2,852.9,101.6,849.2,118.6L849.2,118.6z"/>
	<path class="st1" d="M1074.1,64l-21,124.9h-28.7L979.7,77.8c-0.3,7.4-2.7,24.9-7.3,52.5l-5.1,30.2c-2.7,16.4-16.9,28.4-33.5,28.4
		l0,0l25.6-153.3h38.9l36.9,93.5c0.2-3.1,2.5-18.1,6.7-45l8.1-48.5l0,0c13.5,0,24.4,10.9,24.4,24.4
		C1074.4,61.3,1074.3,62.6,1074.1,64z"/>
	<path class="st1" d="M1209.5,134.4c-15,0-29.5-5.9-40.1-16.6l-5.3-5.3l6.5-4.7c22.6-16.2,53.5-13.7,73.1,6l5.3,5.3l-6.5,4.7
		C1232.9,130.7,1221.4,134.5,1209.5,134.4z"/>
	<path class="st1" d="M1156.5,86.7c-15,0-29.5-5.9-40.1-16.6l-5.3-5.3l6.5-4.7c22.5-16.2,53.5-13.7,73.1,6l5.3,5.3l-6.5,4.7
		C1180,83,1168.4,86.7,1156.5,86.7z"/>
	<path class="st1" d="M1156.5,175.2c-15,0-29.5-5.9-40.1-16.6l-5.3-5.3l6.5-4.7c22.5-16.2,53.5-13.7,73.1,6l5.3,5.3l-6.5,4.7
		C1180,171.5,1168.4,175.2,1156.5,175.2z"/>
	<path class="st1" d="M55.1,134.4c-11.9,0-23.4-3.7-33-10.6l-6.5-4.7l5.2-5.2c19.6-19.6,50.6-22.2,73.1-6l6.5,4.7l-5.2,5.3
		C84.6,128.5,70.2,134.5,55.1,134.4z"/>
	<path class="st1" d="M108.1,86.7c-11.9,0-23.4-3.7-33-10.6l-6.5-4.7l5.3-5.3c19.6-19.6,50.6-22.2,73.1-6l6.5,4.7l-5.3,5.3
		C137.6,80.8,123.1,86.8,108.1,86.7z"/>
	<path class="st1" d="M108.1,175.2c-11.9,0-23.4-3.7-33-10.6l-6.5-4.7l5.3-5.3c19.6-19.6,50.6-22.2,73.1-6l6.5,4.7l-5.3,5.3
		C137.6,169.2,123.1,175.2,108.1,175.2z"/>
	<path class="st2" d="M1173.9,113.4L1173.9,113.4l0.5-0.3c20-14.4,47.5-12.2,65,5.3l0,0l-0.5,0.3
		C1218.8,133,1191.3,130.8,1173.9,113.4z"/>
	<path class="st2" d="M1120.9,65.7L1120.9,65.7l0.5-0.3c20-14.4,47.5-12.1,65,5.3l0,0l-0.5,0.3C1165.9,85.4,1138.4,83.1,1120.9,65.7
		z"/>
	<path class="st2" d="M1120.9,154.1L1120.9,154.1l0.5-0.3c20-14.4,47.5-12.2,65,5.3l0,0l-0.5,0.3
		C1165.9,173.8,1138.4,171.6,1120.9,154.1z"/>
	<path class="st2" d="M25.7,118.7l-0.5-0.3l0,0c17.4-17.4,44.9-19.7,65-5.3l0.5,0.3l0,0C73.3,130.8,45.8,133.1,25.7,118.7z"/>
	<path class="st2" d="M78.7,71l-0.5-0.3l0,0c17.4-17.4,44.9-19.7,65-5.3l0.5,0.3l0,0C126.2,83.1,98.8,85.3,78.7,71z"/>
	<path class="st2" d="M78.7,159.4l-0.5-0.3l0,0c17.4-17.4,44.9-19.7,65-5.3l0.5,0.3l0,0C126.2,171.5,98.7,173.8,78.7,159.4z"/>
</g>
</svg>
